<svg version="1.1" xmlns="http://www.w3.org/2000/svg" 
viewBox="-265.215998840332 -1431.9360382080079 4767.65871765859 2178.816046142578">
<desc>Created with Snap</desc><defs></defs><g><g transform="matrix(26.6392,0,0,26.6392,2523.6291,-1194.9837)">
<g><path d="M56.763,44.188c-0.04-1.05-0.03-2.103-0.02-3.123c0.005-0.458,0.009-0.917,0.009-1.374l0.001-1.187v-0.335   c-0.002-1.274-0.005-2.59,0.007-3.892c-1.621-0.394-3.256-0.804-4.84-1.2c-1.293-0.324-2.63-0.658-3.945-0.982   c-0.094-0.023-0.218-0.024-0.303-0.004c-1.291,0.317-2.604,0.646-3.875,0.964c-1.613,0.404-3.277,0.819-4.925,1.219l0.005,1.091   c0.015,2.933,0.032,5.967-0.011,8.955c-0.03,2.09,0.62,3.909,1.984,5.565c1.668,2.023,3.884,3.607,6.963,4.976   c2.621-1.143,4.699-2.541,6.349-4.27C56.004,48.664,56.854,46.569,56.763,44.188z M53.657,39.938   c-0.793,1.017-1.588,2.032-2.379,3.051c-1.287,1.659-2.568,3.322-3.857,4.979c-0.726,0.932-1.309,0.922-2-0.022   c-1.141-1.561-2.282-3.123-3.422-4.685c-0.385-0.528-0.381-1.074,0.005-1.431c0.385-0.357,0.937-0.322,1.427,0.102   c0.837,0.725,1.669,1.457,2.505,2.184c0.134,0.117,0.279,0.222,0.554,0.44c0.108-0.174,0.179-0.356,0.306-0.483   c1.76-1.772,3.524-3.54,5.299-5.296c0.191-0.189,0.44-0.37,0.693-0.438c0.419-0.112,0.789,0.052,1.007,0.447   C54.018,39.194,53.935,39.582,53.657,39.938z" fill="#ffffff" style=""></path><path d="M62.739,44.122L62.739,44.122c-0.025-0.642-0.031-1.3-0.031-1.956h0.024L62.73,37.26c-0.003-1.606-0.006-3.266,0.011-4.886   c0.022-1.98-1.105-3.438-3.017-3.901c-1.862-0.451-3.76-0.926-5.595-1.385l-0.817-0.204c-1.388-0.348-2.824-0.707-4.237-1.054   c-0.812-0.2-1.7-0.201-2.498-0.005c-1.553,0.381-3.099,0.768-4.538,1.129c-1.782,0.446-3.999,1.001-6.111,1.511   c-1.911,0.461-3.047,1.934-3.038,3.941l0.009,1.746c0.018,3.359,0.036,6.833-0.013,10.234c-0.049,3.495,1.074,6.661,3.339,9.411   c2.443,2.964,5.613,5.234,9.976,7.144c0.482,0.21,1.033,0.321,1.593,0.321c0.575,0,1.151-0.117,1.665-0.337   c3.682-1.585,6.628-3.568,9.009-6.061C61.455,51.733,62.892,48.119,62.739,44.122z M55.947,52.632L55.947,52.632   c-2.118,2.22-4.781,4.023-8.132,5.504c-3.943-1.773-6.788-3.819-8.932-6.419c-1.748-2.121-2.579-4.451-2.541-7.124   c0.056-3.975,0.035-8.008,0.014-11.909l-0.006-1.111c2.078-0.505,4.171-1.029,6.202-1.538c1.694-0.424,3.445-0.863,5.17-1.286   c0.04-0.01,0.139-0.013,0.211,0.005c1.709,0.421,3.447,0.856,5.128,1.277c2.034,0.509,4.129,1.034,6.217,1.544   c-0.012,1.613-0.009,3.236-0.006,4.813c0,0.03,0,0.06,0,0.09l-0.001,1.968c0,0.607-0.006,1.215-0.012,1.822   c-0.013,1.355-0.027,2.756,0.026,4.157C59.403,47.472,58.311,50.156,55.947,52.632z" fill="#ffffff" style=""></path><g><polygon points="34.081,16.773 28.983,16.773 28.983,11.675 21.943,11.675 21.943,16.773 16.845,16.773 16.845,23.813     21.943,23.813 21.943,28.911 28.983,28.911 28.983,23.813 34.081,23.813   " fill="#ffffff" style=""></polygon><path d="M28.742,34.615h-16.59c-0.766,0-1.387,0.621-1.387,1.387c0,0.766,0.621,1.387,1.387,1.387h16.602    C28.751,36.458,28.747,35.533,28.742,34.615z" fill="#ffffff" style=""></path><path d="M28.727,44.327c0.011-0.744,0.017-1.494,0.022-2.244H12.152c-0.766,0-1.387,0.621-1.387,1.387    c0,0.766,0.621,1.387,1.387,1.387h16.579C28.729,44.68,28.725,44.505,28.727,44.327z" fill="#ffffff" style=""></path><path d="M29.385,49.552H12.152c-0.766,0-1.387,0.621-1.387,1.387c0,0.766,0.621,1.387,1.387,1.387h18.251    C29.985,51.427,29.647,50.501,29.385,49.552z" fill="#ffffff" style=""></path></g><g><path d="M33.773,57.303H5.311v-9.446v-6.875V22.739v-7.05V6.697h33.663v4.462c0,1.121,0.909,2.03,2.03,2.03h4.611v8.589    c1.318-0.321,2.713-0.344,4.061-0.073V11.159c0-0.547-0.22-1.07-0.611-1.452l-6.642-6.492c-0.379-0.371-0.889-0.578-1.419-0.578    H3.28c-1.121,0-2.03,0.909-2.03,2.03v11.022v7.05v18.496v6.622v11.476c0,1.121,0.909,2.03,2.03,2.03h35.114    C36.654,60.152,35.128,58.809,33.773,57.303z" fill="#ffffff" style=""></path></g></g><desc>Created with Snap</desc><defs></defs></g><g><g transform="matrix(1.024,0,0,-1.024,0,0)"><path d="M139 290L384 290L384 308Q382 365 353 398Q324 432 270 432Q220 432 184 395Q148 359 139 290ZM447 115L447 27Q391 -5 299 -5Q181 -5 111 66Q41 137 41 252Q41 374 105 443Q169 513 268 513Q365 513 422 452Q479 392 479 278Q479 247 473 213L140 213Q150 147 196 112Q242 77 312 77Q393 77 447 115ZM691 0L589 0L641 674L763 674L853 428Q877 365 901 294Q925 224 937 185L950 146Q996 282 1051 428L1145 674L1267 674L1329 0L1227 0L1203 264L1182 534Q1137 407 1084 264L990 13L909 13L818 264L727 530Q727 486 711 264L691 0ZM1559 0L1457 0L1509 674L1631 674L1721 428Q1745 365 1769 294Q1793 224 1805 185L1818 146Q1864 282 1919 428L2013 674L2135 674L2197 0L2095 0L2071 264L2050 534Q2005 407 1952 264L1858 13L1777 13L1686 264L1595 530Q1595 486 1579 264L1559 0Z" fill="#ffffff" style=""></path></g></g></g></svg>